<svg id="アウトライン後" xmlns="http://www.w3.org/2000/svg" viewBox="0 0 151 24">
    <defs>
        <style>
            .cls-1 {
                fill: #9ea5b2;
            }
        </style>
    </defs>
    <title>powered_logo</title>
    <path class="cls-1" d="M99.07,10H95.56V7.71h9.53V10h-3.51v8.94H99.07Z" />
    <path class="cls-1"
        d="M105.91,13.35v0a5.81,5.81,0,0,1,6-5.8,5.74,5.74,0,0,1,5.94,5.77v0a5.8,5.8,0,0,1-6,5.8A5.74,5.74,0,0,1,105.91,13.35Zm9.34,0v0a3.41,3.41,0,0,0-3.4-3.52,3.35,3.35,0,0,0-3.36,3.49v0a3.41,3.41,0,0,0,3.4,3.53A3.35,3.35,0,0,0,115.25,13.35Z" />
    <path class="cls-1"
        d="M119.89,7.71H125a4.5,4.5,0,0,1,3.27,1.13,3.52,3.52,0,0,1,1,2.57v0a3.48,3.48,0,0,1-2.4,3.48l2.74,4h-2.88l-2.41-3.59h-1.88v3.59h-2.47Zm4.86,5.44c1.2,0,1.89-.64,1.89-1.58v0c0-1.06-.74-1.61-1.94-1.61h-2.39v3.22Z" />
    <path class="cls-1" d="M131.38,7.71h8.4V9.9h-5.95v2.28h5.23v2.19h-5.23v2.36h6v2.19h-8.48Z" />
    <path class="cls-1"
        d="M147.07,12.21c-1.93-.5-2.42-.74-2.42-1.48v0c0-.54.5-1,1.45-1a5,5,0,0,1,2.57.88h0L150.29,9a6.48,6.48,0,0,0-4.16-1.42c-2.29,0-3.93,1.34-3.93,3.38v0c0,2.23,1.46,2.85,3.72,3.43,1.88.48,2.26.8,2.26,1.42v0c0,.66-.61,1.06-1.62,1.06a5,5,0,0,1-3.19-1.23h0l-1.62,1.62a7.15,7.15,0,0,0,4.76,1.79c2.42,0,4.12-1.25,4.12-3.48v0C150.63,13.62,149.35,12.8,147.07,12.21Z" />
    <path class="cls-1"
        d="M90.89,12.21c-1.93-.5-2.42-.74-2.42-1.48v0c0-.54.5-1,1.45-1a5,5,0,0,1,2.57.88h0L94.11,9A6.48,6.48,0,0,0,90,7.55C87.66,7.55,86,8.89,86,10.93v0c0,2.23,1.46,2.85,3.72,3.43,1.88.48,2.26.8,2.26,1.42v0c0,.66-.61,1.06-1.62,1.06a5,5,0,0,1-3.19-1.23h0l-1.62,1.62a7.15,7.15,0,0,0,4.76,1.79c2.42,0,4.12-1.25,4.12-3.48v0C94.45,13.62,93.17,12.8,90.89,12.21Z" />
    <path id="パス_1" data-name="パス 1" class="cls-1"
        d="M73.92.1a20.22,20.22,0,0,0-9.14,6.76c-5.51,6.7-3.92,12.7,6.89,11.43,5.68-.58,3.46-7.48-1.51-3.89-6.52,4.77-3.87,12.78,4,8.27,8-4.67,10.31-17-3.66-14.25-3.38.66-3.13,5.27.56,4.63,2.5-.43,5.67-4.27,5.67-7,0-1.58-1.08-2.54-2.16-2.21a1.16,1.16,0,0,0-.19,2.12c1.24.46-.15,3.18-2.93,5-1.08.69-1.65-.26-.37-.48,6-1.06,8,.84,7.12,4a10.78,10.78,0,0,1-5.85,6.74c-5,2.28-4.77-2-1.39-5.06,1.66-1.44,2.52-.28,1,0-3.1.46-11,1.31-6.84-6a17.84,17.84,0,0,1,9.69-8A1.1,1.1,0,1,0,73.92.1Z" />
    <path class="cls-1"
        d="M.37,10.8H1.44v.81a1.71,1.71,0,0,1,1.48-.91c1,0,2,.85,2,2.55v.13c0,1.7-.95,2.55-2,2.55a1.75,1.75,0,0,1-1.48-.85v2.19H.37Zm3.42,2.57v-.09c0-1-.52-1.63-1.17-1.63s-1.2.63-1.2,1.62v.1c0,1,.56,1.61,1.2,1.61S3.79,14.37,3.79,13.37Z" />
    <path class="cls-1"
        d="M6,13.38v-.09A2.41,2.41,0,0,1,8.31,10.7a2.38,2.38,0,0,1,2.31,2.58v.09a2.39,2.39,0,0,1-2.33,2.57A2.37,2.37,0,0,1,6,13.38Zm3.57,0V13.3c0-.94-.52-1.65-1.26-1.65s-1.23.7-1.23,1.64v.06c0,.94.52,1.65,1.25,1.65S9.55,14.3,9.55,13.36Z" />
    <path class="cls-1"
        d="M11.64,10.8h1.1l.85,3.4.94-3.41h.91l.93,3.41.86-3.4h1.09L16.9,15.88h-1L15,12.51l-1,3.37H13Z" />
    <path class="cls-1"
        d="M19.27,13.38V13.3a2.33,2.33,0,0,1,2.15-2.6c1.37,0,2.09,1.14,2.09,2.66,0,.06,0,.21,0,.37H20.35A1.29,1.29,0,0,0,21.62,15a1.6,1.6,0,0,0,1.16-.53l.56.66a2.28,2.28,0,0,1-1.77.78A2.34,2.34,0,0,1,19.27,13.38Zm3.2-.4c-.06-.79-.42-1.37-1-1.37s-1,.52-1.08,1.37Z" />
    <path class="cls-1" d="M25.1,10.8h1.07v1a1.5,1.5,0,0,1,1.51-1.07v1.17h0c-.88,0-1.47.57-1.47,1.72v2.23H25.1Z" />
    <path class="cls-1"
        d="M28.81,13.38V13.3A2.33,2.33,0,0,1,31,10.7c1.37,0,2.09,1.14,2.09,2.66,0,.06,0,.21,0,.37H29.89A1.29,1.29,0,0,0,31.16,15a1.6,1.6,0,0,0,1.16-.53l.56.66a2.31,2.31,0,0,1-1.77.78A2.34,2.34,0,0,1,28.81,13.38ZM32,13c-.06-.79-.42-1.37-1-1.37s-1,.52-1.08,1.37Z" />
    <path class="cls-1"
        d="M34.33,13.38v-.12c0-1.7.94-2.56,2-2.56a1.73,1.73,0,0,1,1.47.86V9h1.08v6.87H37.76V15a1.7,1.7,0,0,1-1.47.9C35.28,15.93,34.33,15.09,34.33,13.38Zm3.45,0v-.1c0-1-.55-1.62-1.2-1.62s-1.16.61-1.16,1.63v.08c0,1,.52,1.62,1.16,1.62S37.78,14.35,37.78,13.37Z" />
    <path class="cls-1"
        d="M44.67,15.08v.76H43.59V9h1.08v2.64a1.69,1.69,0,0,1,1.47-.91c1,0,2,.85,2,2.55v.13c0,1.7-.94,2.55-2,2.55A1.72,1.72,0,0,1,44.67,15.08ZM47,13.37v-.09c0-1-.53-1.63-1.17-1.63s-1.2.63-1.2,1.62v.1c0,1,.55,1.61,1.2,1.61S47,14.37,47,13.37Z" />
    <path class="cls-1"
        d="M52.49,10.8H53.6l-1.71,5.11c-.34,1-.75,1.39-1.49,1.39a2,2,0,0,1-1-.27l.31-.82a1.3,1.3,0,0,0,.58.17c.29,0,.46-.13.61-.53l-1.8-5h1.15l1.16,3.66Z" />
</svg>